<svg xmlns="http://www.w3.org/2000/svg" width="1200" height="800" viewBox="0 0 1200 800">
  <defs>
    <linearGradient id="bg" x1="0" y1="0" x2="1" y2="1">
      <stop offset="0%" stop-color="#0d0b1f"/>
      <stop offset="100%" stop-color="#231b3a"/>
    </linearGradient>
    <radialGradient id="spot" cx="65%" cy="30%" r="55%">
      <stop offset="0%" stop-color="#ffcc66" stop-opacity="0.6"/>
      <stop offset="100%" stop-color="#ffcc66" stop-opacity="0"/>
    </radialGradient>
  </defs>

  <rect width="1200" height="800" fill="url(#bg)"/>
  <rect width="1200" height="800" fill="url(#spot)"/>

  <g opacity="0.25" fill="#ffffff">
    <circle cx="160" cy="140" r="24"/>
    <circle cx="220" cy="120" r="10"/>
    <circle cx="1040" cy="620" r="18"/>
    <circle cx="980" cy="660" r="8"/>
  </g>

  <g opacity="0.18" fill="#000000">
    <rect x="90" y="510" width="360" height="24" rx="12"/>
    <rect x="140" y="540" width="260" height="18" rx="9"/>
  </g>

  <g transform="translate(720,260)" fill="#000000" opacity="0.35">
    <rect x="0" y="140" width="220" height="26" rx="13"/>
    <rect x="70" y="40" width="80" height="120" rx="16"/>
    <rect x="-10" y="0" width="200" height="40" rx="20"/>
    <rect x="140" y="0" width="200" height="40" rx="20"/>
    <rect x="60" y="-20" width="80" height="40" rx="20"/>
  </g>

  <g transform="translate(180,200)" opacity="0.32">
    <circle cx="220" cy="140" r="120" fill="#111"/>
    <circle cx="180" cy="120" r="18" fill="#ffcc66"/>
    <circle cx="260" cy="120" r="18" fill="#ffcc66"/>
    <rect x="160" y="170" width="120" height="14" rx="7" fill="#ffcc66"/>
  </g>

  <text x="80" y="720" font-family="Trebuchet MS, Arial, sans-serif" font-size="48" fill="#ffffff" opacity="0.35">JUDGE MODE</text>
</svg>
